<svg width="42" height="27" viewBox="0 0 42 27" fill="none" xmlns="http://www.w3.org/2000/svg">
<g clip-path="url(#clip0_2450_1995)">
<path d="M40.0049 14.8445L27.2605 2.10011C26.4781 1.31853 25.5171 0.739212 24.4606 0.412207C23.4041 0.0852011 22.2839 0.020342 21.1968 0.223234C20.0568 -0.0604888 18.8627 -0.0439796 17.731 0.271151C16.5993 0.586282 15.5686 1.18928 14.7393 2.02136L1.9949 14.7395C1.05405 15.6977 0.416177 16.9118 0.16086 18.2302C-0.0944581 19.5486 0.0440823 20.913 0.559197 22.1532C1.07431 23.3934 1.9432 24.4545 3.05746 25.2041C4.17171 25.9536 5.48202 26.3585 6.8249 26.3682C7.72114 26.3716 8.609 26.1957 9.43623 25.8509C10.2635 25.506 11.0134 24.9991 11.6418 24.3601L20.9999 15.0807L30.4105 24.4914C31.7034 25.7025 33.4166 26.3635 35.1879 26.3346C36.9592 26.3058 38.6499 25.5892 39.9026 24.3366C41.1553 23.0839 41.8718 21.3932 41.9007 19.6218C41.9296 17.8505 41.2686 16.1373 40.0574 14.8445H40.0049ZM22.4437 2.21823C23.0607 2.21729 23.6719 2.3386 24.2418 2.57513C24.8118 2.81167 25.3292 3.15876 25.7643 3.59636L32.9043 10.7232L26.2499 17.3907L19.123 10.2507C18.4685 9.59187 18.0233 8.75428 17.8434 7.8432C17.6634 6.93212 17.7567 5.98817 18.1115 5.12993C18.4662 4.27169 19.0667 3.53742 19.8375 3.01938C20.6083 2.50134 21.515 2.22262 22.4437 2.21823ZM10.1587 22.9032C9.27448 23.7874 8.0753 24.2841 6.8249 24.2841C5.5745 24.2841 4.37532 23.7874 3.49115 22.9032C2.60699 22.0191 2.11027 20.8199 2.11027 19.5695C2.11027 18.3191 2.60699 17.1199 3.49115 16.2357L8.3474 11.3795L15.0149 18.0339L10.1587 22.9032ZM15.7499 17.2857L9.09553 10.6182L16.2355 3.47823C16.4433 3.2766 16.6672 3.09224 16.9049 2.92698C15.9597 4.24064 15.5121 5.84743 15.6419 7.46058C15.7717 9.07373 16.4705 10.5883 17.6136 11.7339L19.4643 13.5845L15.7499 17.2857ZM38.4955 22.9951C37.6123 23.8759 36.4157 24.3706 35.1683 24.3706C33.9209 24.3706 32.7244 23.8759 31.8412 22.9951L26.9718 18.1389L33.6393 11.4714L38.4955 16.3407C39.3781 17.2223 39.8751 18.4178 39.8776 19.6652C39.88 20.9126 39.3877 22.1101 38.5087 22.9951H38.4955Z" fill="#333333"/>
</g>
<defs>
<clipPath id="clip0_2450_1995">
<rect width="42" height="26.4862" fill="white"/>
</clipPath>
</defs>
</svg>
