<svg width="14" height="9" viewBox="0 0 14 9" fill="none" xmlns="http://www.w3.org/2000/svg">
<g clip-path="url(#clip0_865_682)">
<path d="M0 4.02461V4.54961C3.2375 9.97461 10.7625 9.97461 14 4.54961V4.02461C10.7625 -1.31289 3.2375 -1.31289 0 4.02461ZM7 7.52461C5.25 7.52461 3.7625 6.12461 3.7625 4.28711C3.7625 2.53711 5.25 1.04961 7 1.04961C8.75 1.04961 10.2375 2.53711 10.2375 4.28711C10.2375 6.12461 8.75 7.52461 7 7.52461Z" fill="#333333"/>
<path d="M8.575 4.28789C8.575 5.16289 7.875 5.86289 7 5.86289C6.125 5.86289 5.425 5.16289 5.425 4.28789C5.425 3.41289 6.125 2.71289 7 2.71289C7.875 2.71289 8.575 3.41289 8.575 4.28789Z" fill="#333333"/>
</g>
<defs>
<clipPath id="clip0_865_682">
<rect width="14" height="8.575" fill="white"/>
</clipPath>
</defs>
</svg>
