<svg width="10" height="20" viewBox="0 0 10 20" fill="none" xmlns="http://www.w3.org/2000/svg">
<path d="M2.09459 4.03153C2.09459 4.54955 2.09459 6.89189 2.09459 6.89189H0V10.3829H2.09459V20H6.3964V10.3829H9.27928C9.27928 10.3829 9.54955 8.69369 9.68468 6.86937C9.3018 6.86937 6.41892 6.86937 6.41892 6.86937C6.41892 6.86937 6.41892 4.84234 6.41892 4.48198C6.41892 4.12162 6.89189 3.64865 7.34234 3.64865C7.81531 3.64865 8.78378 3.64865 9.68468 3.64865C9.68468 3.17568 9.68468 1.53153 9.68468 0C8.46847 0 7.09459 0 6.48649 0C1.98198 0 2.09459 3.49099 2.09459 4.03153Z" fill="black"/>
</svg>
