<svg width="32" height="36" viewBox="0 0 32 36" fill="none" xmlns="http://www.w3.org/2000/svg">
<g clip-path="url(#clip0_2450_1991)">
<path d="M30.5053 19.2802C28.5639 16.3346 25.8191 13.9134 23.4537 11.3249C20.5973 8.27884 18.0422 4.95387 17.1162 0.825561C17.0405 0.589113 16.8916 0.382827 16.6911 0.236464C16.4905 0.0901014 16.2487 0.0112305 16.0004 0.0112305C15.7521 0.0112305 15.5103 0.0901014 15.3097 0.236464C15.1092 0.382827 14.9603 0.589113 14.8846 0.825561C13.8693 5.5787 10.6782 9.20492 7.44252 12.6191C4.20682 16.0334 0.268183 19.3137 0.000400153 24.0892C-0.0665454 28.2063 2.31002 33.0152 6.69496 33.7405C8.18286 33.9212 9.69237 33.7632 11.1106 33.2782C12.5288 32.7933 13.819 31.9939 14.8846 30.9399L14.7842 35.7042H17.0157L16.9376 30.8284C18.568 32.4009 20.6383 33.44 22.8735 33.8074C24.4836 34.0085 26.1158 33.692 27.534 32.9037C28.9522 32.1153 30.0827 30.8961 30.7619 29.4225C31.6234 27.8614 32.0537 26.099 32.0086 24.3166C31.9635 22.5341 31.4446 20.7958 30.5053 19.2802ZM7.37557 31.5536C3.97251 31.0738 2.32118 27.2133 2.37697 24.1449C2.52202 21.6233 4.12871 19.7489 5.72425 17.9525C7.31979 16.1561 8.81491 14.6833 10.3323 13.032C12.3807 10.8902 14.14 8.48952 15.5653 5.89111L15.0297 27.5257C13.3114 29.7572 10.2989 31.9218 7.31979 31.4978L7.37557 31.5536ZM25.0827 31.4978C21.992 32.1338 18.801 29.8465 17.0827 27.4811L16.9823 27.3807L16.6475 6.03616C18.734 10.0194 22.0924 13.2998 25.1608 16.5801C27.2696 18.8116 29.847 21.2774 29.78 24.6024C29.6573 27.3918 28.0506 30.806 25.0269 31.442L25.0827 31.4978Z" fill="black"/>
</g>
<defs>
<clipPath id="clip0_2450_1991">
<rect width="32" height="35.7043" fill="white"/>
</clipPath>
</defs>
</svg>
