<svg width="34" height="34" viewBox="0 0 34 34" fill="none" xmlns="http://www.w3.org/2000/svg">
<path d="M29.325 10.8375H24.65V4.67505H3.08125C1.38125 4.67505 0 6.0563 0 7.7563V24.7563H3.08125C3.08125 27.3063 5.1 29.4313 7.75625 29.4313C10.4125 29.4313 12.4312 27.4126 12.4312 24.7563H21.675C21.675 27.3063 23.6937 29.4313 26.35 29.4313C29.0062 29.4313 31.025 27.4126 31.025 24.7563H34V17.0001L29.325 10.8375ZM7.75625 27.0938C6.48125 27.0938 5.41875 26.0313 5.41875 24.7563C5.41875 23.4813 6.48125 22.4188 7.75625 22.4188C9.03125 22.4188 10.0938 23.4813 10.0938 24.7563C10.0938 26.0313 9.03125 27.0938 7.75625 27.0938ZM28.5812 13.175L31.6625 17.0001H24.7562V13.175H28.5812ZM26.2438 27.0938C24.9688 27.0938 23.9062 26.0313 23.9062 24.7563C23.9062 23.4813 24.9688 22.4188 26.2438 22.4188C27.5188 22.4188 28.5812 23.4813 28.5812 24.7563C28.5812 26.0313 27.5188 27.0938 26.2438 27.0938Z" fill="#333333"/>
<path d="M22.3127 20.2937H2.7627V8.60615C2.7627 7.75615 3.4002 7.11865 4.2502 7.11865H22.3127V20.2937Z" fill="white"/>
</svg>
