<svg width="34" height="34" viewBox="0 0 34 34" fill="none" xmlns="http://www.w3.org/2000/svg">
<path d="M3.08086 28.6876C2.65586 28.6876 2.33711 28.5813 2.01836 28.4751C1.69961 28.3688 1.38086 28.1563 1.16836 27.8376C0.955859 27.6251 0.743359 27.3063 0.530859 26.9876C0.424609 26.6688 0.318359 26.2438 0.318359 25.9251V8.50005C0.318359 8.07505 0.424609 7.7563 0.530859 7.43755C0.637109 7.1188 0.849609 6.80005 1.16836 6.58755C1.38086 6.37505 1.69961 6.16255 2.01836 5.95005C2.33711 5.8438 2.76211 5.73755 3.08086 5.73755H30.9184C31.3434 5.73755 31.6621 5.8438 31.9809 5.95005C32.2996 6.0563 32.6184 6.2688 32.8309 6.58755C33.0434 6.80005 33.2559 7.1188 33.4684 7.43755C33.5746 7.7563 33.6809 8.1813 33.6809 8.50005V26.0313C33.6809 26.4563 33.5746 26.7751 33.4684 27.0938C33.3621 27.4126 33.1496 27.7313 32.8309 27.9438C32.6184 28.1563 32.2996 28.3688 31.9809 28.5813C31.6621 28.6876 31.2371 28.7938 30.9184 28.7938H3.08086V28.6876ZM2.76211 25.9251C2.76211 26.0313 2.76211 26.1376 2.86836 26.1376C2.97461 26.2438 2.97461 26.2438 3.08086 26.2438H30.9184C31.0246 26.2438 31.1309 26.2438 31.1309 26.1376C31.2371 26.0313 31.2371 26.0313 31.2371 25.9251V14.3438H2.76211V25.9251ZM31.2371 11.7938V8.50005C31.2371 8.3938 31.2371 8.28755 31.1309 8.28755C31.0246 8.1813 31.0246 8.1813 30.9184 8.1813H3.08086C2.97461 8.1813 2.86836 8.1813 2.86836 8.28755C2.86836 8.28755 2.76211 8.3938 2.76211 8.50005V11.9H31.2371V11.7938ZM22.9496 22.5251V20.0813H27.5184V22.5251H22.9496Z" fill="#333333"/>
</svg>
