<svg width="27" height="27" viewBox="0 0 27 27" fill="none" xmlns="http://www.w3.org/2000/svg">
<g clip-path="url(#clip0_2450_2007)">
<path d="M23.0887 15.5149L22.9443 15.843C22.4435 17.9368 21.24 19.7955 19.5345 21.1093C17.829 22.423 15.7247 23.1123 13.5724 23.0623C11.2478 23.0287 9.01229 22.1624 7.27201 20.6208L9.45091 19.0851L1.3916 15.3442L2.1529 23.9811L3.99053 22.7472C5.24866 24.0037 6.74313 24.9985 8.38771 25.6743C10.0323 26.3502 11.7944 26.6937 13.5724 26.685C16.6654 26.7782 19.6919 25.7756 22.1176 23.8543C24.5433 21.933 26.2121 19.2165 26.8296 16.1843L27.0003 15.528L23.0887 15.5149Z" fill="#333333"/>
<path d="M4.0688 11.3408C4.44589 9.72694 5.23344 8.23789 6.35515 7.0179C7.47685 5.79791 8.89467 4.88835 10.4712 4.37736C12.0478 3.86637 13.7296 3.77128 15.3537 4.1013C16.9778 4.43132 18.4891 5.17526 19.7411 6.26103L17.5491 7.74426L25.6216 10.9864L24.8865 2.61203L23.0226 3.92462C21.2771 2.20038 19.0964 0.98209 16.713 0.399604C14.3295 -0.182882 11.8327 -0.107732 9.48866 0.617044C7.14459 1.34182 5.04111 2.68906 3.40242 4.51516C1.76372 6.34126 0.651237 8.57779 0.183532 10.9864L-0.0527344 12.0627H3.88504L4.0688 11.3408Z" fill="#333333"/>
</g>
<defs>
<clipPath id="clip0_2450_2007">
<rect width="27" height="26.7243" fill="white"/>
</clipPath>
</defs>
</svg>
