<svg width="34" height="30" viewBox="0 0 34 30" fill="none" xmlns="http://www.w3.org/2000/svg">
<g clip-path="url(#clip0_2450_2002)">
<path d="M24.31 29.1444C23.3226 28.6294 22.3869 28.021 21.5156 27.3275C20.6262 26.625 19.8236 25.8189 19.125 24.9263C18.4292 24.043 17.8605 23.0667 17.4356 22.0256C17.0093 20.9727 16.7928 19.8466 16.7981 18.7106V13.1644H18.7213C19.2932 13.166 19.8646 13.1306 20.4319 13.0581C20.9582 13.002 21.4659 12.8316 21.9194 12.5588C22.9727 11.9456 24.1754 11.6366 25.3938 11.6663C26.0114 11.6619 26.6265 11.7442 27.2213 11.9106C27.8131 12.0778 28.3809 12.3207 28.9106 12.6331C29.3702 12.8994 29.8806 13.066 30.4088 13.1219C30.9867 13.1946 31.5688 13.2301 32.1513 13.2281H34V18.7744C34.0063 19.9173 33.7897 21.0505 33.3625 22.1106C32.9377 23.1507 32.3651 24.124 31.6625 25.0006C30.9536 25.8848 30.1442 26.6835 29.2507 27.3806C28.3769 28.0738 27.4416 28.6856 26.4563 29.2081L25.3938 29.7713L24.31 29.1444ZM19.3163 18.7106C19.3087 19.5992 19.4898 20.4792 19.8475 21.2925C20.2083 22.1113 20.6802 22.8764 21.25 23.5663C21.8397 24.2752 22.506 24.9166 23.2369 25.4788C23.9033 26.0038 24.6144 26.4695 25.3619 26.8706C26.1082 26.4675 26.8191 26.0018 27.4869 25.4788C28.2422 24.9228 28.9303 24.281 29.5375 23.5663C30.1069 22.8741 30.5821 22.1095 30.9506 21.2925C31.3036 20.4776 31.4845 19.5987 31.4819 18.7106V15.6931C30.8397 15.6819 30.1998 15.6143 29.5694 15.4913C28.8841 15.3433 28.2274 15.0849 27.625 14.7263C27.2914 14.5327 26.9343 14.3828 26.5625 14.28C25.8213 14.11 25.0512 14.11 24.31 14.28C23.936 14.3711 23.5778 14.5179 23.2475 14.7156C22.6159 15.0766 21.9309 15.3348 21.2181 15.4806C20.5879 15.6062 19.9481 15.6773 19.3056 15.6931L19.3163 18.7106ZM2.31627 23.5131C2.00408 23.5219 1.69333 23.4677 1.40252 23.3538C0.985092 23.1776 0.629156 22.8817 0.379571 22.5036C0.129987 22.1254 -0.0020762 21.6819 2.46813e-05 21.2288C0.00328376 21.0294 0.0210389 20.8305 0.0531497 20.6338C0.0875679 20.418 0.137276 20.205 0.2019 19.9963C0.261014 19.7793 0.342929 19.5691 0.446275 19.3694C0.53922 19.1757 0.665041 18.9995 0.81815 18.8488L4.25002 15.4275V-0.0212402H29.8563V10.6038L29.5375 10.4231C29.2211 10.2502 28.8905 10.1045 28.5494 9.98751C28.1988 9.87064 27.8482 9.76439 27.4869 9.67939H27.3275V2.52876H6.72565V14.6944H14.5881V17.2125H5.99252L2.67752 20.5169C2.63478 20.6133 2.59926 20.7127 2.57127 20.8144C2.56611 20.8709 2.56611 20.9278 2.57127 20.9844H14.875V21.1544C15.029 21.862 15.2532 22.5525 15.5444 23.2156L15.6719 23.5131H2.31627Z" fill="#333333"/>
</g>
<defs>
<clipPath id="clip0_2450_2002">
<rect width="34" height="29.6969" fill="white"/>
</clipPath>
</defs>
</svg>
