<svg width="20" height="32" viewBox="0 0 20 32" fill="none" xmlns="http://www.w3.org/2000/svg">
<path d="M5.38922 21.2211C5.2208 21.2211 4.88395 21.2211 4.71553 21.0526L4.04185 20.7158C3.36816 20.3789 3.19974 19.5368 3.53659 19.0316L3.87343 18.3579L3.36816 17.8526L5.05237 14.9895L4.21027 14.4842L9.59974 5.05263L10.4418 5.55789L12.6313 1.85263C12.6313 1.68421 12.4629 1.68421 12.4629 1.51579C12.2945 1.17895 12.4629 0.842105 12.6313 0.505263C12.7997 0.168421 13.1366 0 13.6418 0C13.8103 0 14.1471 0 14.3155 0.168421L17.3471 1.85263C17.684 2.02105 17.8524 2.35789 17.8524 2.52632C18.0208 2.86316 17.8524 3.2 17.684 3.53684C17.5155 3.87368 17.1787 4.04211 17.0103 4.04211C16.8418 4.04211 16.8418 4.04211 16.6734 4.04211L14.484 7.91579L15.3261 8.42105L13.6418 11.2842C14.484 11.7895 15.1576 12.2947 15.6629 12.9684C16.3366 13.6421 16.8418 14.4842 17.1787 15.3263C17.3471 15.6632 17.1787 16.1684 16.8418 16.3368H16.6734C16.3366 16.3368 16.1682 16.1684 15.9997 15.8316C15.3261 14.3158 14.3155 13.1368 12.9682 12.4632L9.93658 17.8526L9.09448 17.3474L7.41027 20.2105L6.90501 19.8737L6.56816 20.5474C6.39974 20.8842 6.0629 21.0526 5.72606 21.2211C5.55764 21.0526 5.38922 21.2211 5.38922 21.2211ZM4.04185 19.7053L5.55764 20.5474L6.39974 19.2L5.05237 18.3579L4.04185 19.7053ZM6.90501 18.1895L7.74711 16.6737L6.23132 15.8316L5.38922 17.3474L6.90501 18.1895ZM13.305 6.90526L15.1576 3.70526L13.6418 2.86316L11.7892 6.06316L13.305 6.90526Z" fill="#333333"/>
<path d="M2.86316 32V28.2947H6.23158C6.4 27.7895 6.73684 27.4526 7.07368 27.1158C6.4 26.9474 5.72632 26.6105 5.05263 26.2737C5.05263 26.2737 4.88421 26.2737 4.88421 26.1052H0.673684C0.336842 26.1052 0 25.7684 0 25.4316C0 25.0947 0.336842 24.7579 0.673684 24.7579H9.76842C10.1053 24.7579 10.4421 25.0947 10.4421 25.4316C10.4421 25.6 10.4421 25.6 10.2737 25.7684C12.4632 25.4316 14.3158 24.0842 15.4947 22.2316C15.6632 22.0631 15.8316 21.7263 15.8316 21.5579C16 21.221 16.1684 21.0526 16.5053 21.0526H16.6737C16.8421 21.0526 17.0105 21.221 17.0105 21.3895C17.0105 21.5579 17.0105 21.7263 17.0105 21.8947C16.8421 22.2316 16.6737 22.5684 16.5053 22.7368C16 23.7473 15.1579 24.5895 14.3158 25.2631C13.6421 25.7684 12.8 26.2737 11.9579 26.6105C12.4632 26.9474 12.8 27.4526 12.9684 28.1263H15.4947V32H2.86316Z" fill="#333333"/>
<path d="M17.1791 21.5579C15.6633 21.5579 14.4844 20.3789 14.4844 18.8631C14.4844 17.3473 15.6633 16.1684 17.1791 16.1684C18.6949 16.1684 19.8738 17.3473 19.8738 18.8631C19.8738 20.2105 18.6949 21.5579 17.1791 21.5579ZM17.1791 17.3473C16.337 17.3473 15.6633 18.021 15.6633 18.8631C15.6633 19.7052 16.337 20.2105 17.1791 20.2105C18.0212 20.2105 18.6949 19.5368 18.6949 18.6947C18.6949 17.8526 18.0212 17.3473 17.1791 17.3473Z" fill="#333333"/>
<path d="M17.1794 20.0421C16.5057 20.0421 15.832 19.3684 15.832 18.6947C15.832 18.021 16.5057 17.3474 17.1794 17.3474C17.8531 17.3474 18.5268 18.021 18.5268 18.6947C18.5268 19.5368 17.8531 20.0421 17.1794 20.0421ZM17.1794 18.6947C17.1794 18.6947 17.011 18.6947 17.1794 18.6947V18.6947Z" fill="white"/>
</svg>
