<svg width="32" height="34" viewBox="0 0 32 34" fill="none" xmlns="http://www.w3.org/2000/svg">
<path d="M8.4 6C7.8 5 7.2 4 6.4 3C6.4 2.8 6 2.6 5.8 2.2V2C7.6 1.2 9.4 0.599995 11.4 0.199995C13.2 -4.70877e-06 15 -0.200005 16.8 0.199995C19.2 0.599995 21.8 1.4 23.8 2.8C29.4 6.2 33 13.2 31.8 19.8C29.6 32 14.4 37.8 4.8 30C2 27.6 0 24.2 0 20.6C0.2 15.2 3.6 10.8 9.2 10C12.2 9.4 15 10 17.4 11.8C19.6 13.4 21.2 16 21.8 18.6C21.8 19 22.2 20.8 21.8 20.8C20.4 20.8 19 20.8 17.6 20.8C17.2 20.8 17.2 20.8 17.2 20.4C17 19.8 16.8 19.2 16.6 18.6C15 15.2 10.8 13.8 7.6 16C5.8 17.4 4.6 20 5.4 22.2C6 24.6 8 26.2 10 27.2C17.6 30.8 26 25.2 26 16.8C25.8 11.6 22 7.4 17.2 5.8C16.2 5.6 15.2 5.2 14.2 5.2C12.4 5.2 10.2 5.4 8.4 6Z" fill="#333333"/>
</svg>
