<svg width="30" height="29" viewBox="0 0 30 29" fill="none" xmlns="http://www.w3.org/2000/svg">
<path d="M16.3846 28.8462C16.1538 28.8462 15.9231 28.8462 15.9231 28.8462C14.5385 28.6154 13.1538 28.1538 11.7692 27.9231C11.0769 27.6923 10.8462 27.4615 10.8462 26.7692C10.8462 25.1538 10.8462 23.3077 10.8462 21.6923C10.8462 19.3846 11.3077 19.3846 8.53846 19.1538H8.30769C7.38461 18.6923 7.15385 18.4615 7.15385 17.7692C7.15385 17.0769 7.15385 16.3846 7.15385 15.6923C7.15385 12.9231 6.92308 13.3846 9.46154 13.1538C10.1538 13.1538 10.6154 12.6923 10.6154 12C10.6154 11.7692 10.6154 11.3077 10.6154 11.0769C9.92308 10.8462 9.23077 10.3846 8.76923 10.1539C9 9.92308 9.23077 9.92308 9.46154 9.69231V9.46154C7.61538 9.92308 5.76923 10.3846 4.15385 10.8462C3.92308 10.6154 3.69231 10.3846 3.46154 10.3846C3.69231 10.1538 3.92308 9.92308 4.15385 9.69231C3 9.92308 1.84615 9.92308 0.692308 10.1539C0.692308 10.1539 0.230769 9.92308 0 9.92308C0.230769 9.46154 0.461538 9.23077 0.692308 9C1.15385 8.76923 1.84615 8.53847 2.30769 8.3077C2.07692 8.3077 2.07692 8.3077 1.61538 8.07693C2.30769 7.84616 3 7.61539 3.46154 7.38462V7.15385C2.76923 7.38462 2.30769 7.38462 1.84615 7.61539C1.84615 7.38462 1.84615 7.15385 1.84615 7.15385C3.46154 6.92308 4.84615 6.69231 6.23077 6.46154C6.23077 6 6 5.76924 6 5.07693C6.92308 6 7.38462 6 9 5.07693C8.53846 5.07693 8.30769 5.07693 7.84615 5.07693V4.84616C8.30769 4.61539 9 4.61539 9.69231 4.15385C10.8462 3.69231 12.2308 4.61539 13.1538 3.23077H13.3846C14.5385 3 15.6923 2.76924 16.8462 2.53847C16.8462 2.53847 16.8462 2.53847 16.8462 2.3077C15.2308 2.76924 13.6154 2.76923 12.2308 3C12.2308 3 12.2308 3 12.2308 2.76924C13.3846 2.53847 14.5385 2.3077 15.4615 2.07693C15.4615 2.07693 15.4615 2.07693 15.4615 1.84616C15.2308 1.84616 14.7692 1.84616 14.5385 1.84616C14.5385 1.84616 14.5385 1.84616 14.5385 1.61539C16.1538 1.61539 18 1.38462 19.6154 1.15385C19.3846 1.15385 18.9231 1.15385 18.4615 1.15385C19.1538 1.15385 19.6154 0.923082 20.0769 0.923082C21.9231 0.692312 23.7692 0.230774 25.6154 0.230774C26.3077 0.230774 27.2308 0.230774 27.6923 0.692312C28.3846 1.38462 29.0769 2.53847 29.5385 3.69231V3.92308C29.5385 4.15385 29.3077 4.61539 29.3077 4.84616C29.3077 6.46154 28.3846 7.61539 27.2308 7.84616C25.8462 8.07693 24.4615 8.3077 23.0769 8.53847C21.4615 8.76923 19.1538 9.23077 16.8462 9.69231C16.8462 10.3846 16.8462 10.6154 16.8462 11.0769C16.8462 12.4615 17.0769 12.4615 18.2308 12.4615C20.3077 12.4615 22.3846 12.2308 24.4615 12C25.3846 12 25.6154 12.2308 25.6154 13.1538C25.6154 15 25.6154 17.0769 25.6154 18.9231C25.6154 19.8462 25.3846 20.0769 24.4615 20.0769C22.3846 19.8462 20.3077 19.6154 18.2308 19.3846C17.0769 19.3846 16.8462 19.6154 16.8462 20.7692C16.8462 23.0769 16.8462 25.1538 16.8462 27.4615C16.8462 27.9231 16.6154 28.3846 16.3846 28.8462ZM7.38462 6.92308C7.38462 7.15385 7.38462 7.15385 7.38462 6.92308C8.07692 6.92308 8.53846 6.92308 9 6.69231V6.46154C8.53846 6.46154 8.30769 6.23077 7.84615 6.23077C7.61538 6.23077 7.38462 6.69231 7.38462 6.92308Z" fill="#333333"/>
</svg>
