<svg width="32" height="26" viewBox="0 0 32 26" fill="none" xmlns="http://www.w3.org/2000/svg">
<path d="M16.0001 24.338C16.0001 24.338 19.6057 17.1268 15.0987 9.4648C10.5916 1.80283 2.70431 1.12677 2.70431 1.12677C2.70431 1.12677 -0.90132 8.33804 3.60572 16C8.11277 23.8873 16.0001 24.338 16.0001 24.338Z" fill="white"/>
<path d="M16.0003 25.6901C15.5496 25.6901 7.21155 25.0141 2.47916 16.9014C-2.25323 8.78873 1.3524 1.12676 1.57775 0.901408C1.8031 0.225352 2.25381 0 2.70451 0C3.15522 0 11.4932 0.676057 16.2256 8.78873C20.958 16.9014 17.3524 24.5634 17.127 24.7887C16.9017 25.4648 16.451 25.6901 16.0003 25.6901ZM3.38057 2.47887C2.70451 4.50704 1.3524 9.91549 4.50733 15.5493C7.88761 21.1831 13.0707 22.7606 15.0989 22.9859C16.0003 21.1831 17.3524 15.7746 13.9721 10.1408C10.5918 4.50704 5.40874 2.92958 3.38057 2.47887Z" fill="#333333"/>
<path d="M16.0004 25.6901C15.5497 25.6901 15.099 25.4648 14.8736 25.0141L4.95812 7.66198C4.50741 6.98592 4.73276 6.30986 5.40882 5.85916C5.85952 5.63381 6.76093 5.85916 6.98628 6.30986L17.1271 23.662C17.5778 24.338 17.3525 25.0141 16.6764 25.4648C16.4511 25.6901 16.2257 25.6901 16.0004 25.6901Z" fill="#333333"/>
<path d="M9.2393 13.9718H9.01395L4.5069 12.8451C3.83085 12.6197 3.38014 11.9437 3.6055 11.2676C3.83085 10.5916 4.5069 10.1409 5.18296 10.3662L8.33789 11.2676L9.2393 7.88734C9.46465 7.21128 10.1407 6.76058 10.8168 6.98593C11.4928 7.21128 11.9435 7.88734 11.7182 8.56339L10.5914 13.0704C10.3661 13.7465 9.91535 13.9718 9.2393 13.9718Z" fill="#333333"/>
<path d="M12.6199 19.831H12.3945L7.8875 18.7042C6.98609 18.4789 6.76074 17.8028 6.76074 17.1267C6.98609 16.4507 7.66215 16 8.33821 16.2253L11.7185 17.1267L12.6199 13.7465C12.8452 13.0704 13.5213 12.6197 14.1974 12.8451C14.8734 13.0704 15.3241 13.7465 15.0988 14.4225L13.972 18.9296C13.7467 19.6056 13.296 19.831 12.6199 19.831Z" fill="#333333"/>
<path d="M16.0002 24.338C16.0002 24.338 12.3946 17.1268 16.9016 9.4648C21.4087 1.80283 29.296 1.12677 29.296 1.12677C29.296 1.12677 32.9016 8.33804 28.3946 16C23.8875 23.662 16.0002 24.338 16.0002 24.338Z" fill="white"/>
<path d="M16.0004 25.6901C15.5497 25.6901 15.099 25.4648 14.8736 25.0141C14.6483 24.5634 11.0427 17.1268 15.7751 8.78873C20.5075 0.676057 28.8455 0 29.2962 0C29.7469 0 30.1976 0.225352 30.4229 0.676056C30.6483 0.901408 34.2539 8.56338 29.5215 16.6761C24.7891 25.0141 16.4511 25.6901 16.0004 25.6901ZM28.6201 2.47887C26.592 2.92958 21.1835 4.50704 18.0286 10.1408C14.6483 15.7746 16.0004 21.1831 16.6765 22.9859C18.7046 22.5352 24.1131 21.1831 27.268 15.5493C30.6483 9.91549 29.2962 4.50704 28.6201 2.47887Z" fill="#333333"/>
<path d="M16.0009 25.6902C15.7755 25.6902 15.5502 25.6902 15.3248 25.4648C14.6488 25.0141 14.4234 24.3381 14.8741 23.662L25.015 6.30988C25.4657 5.63383 26.1417 5.40847 26.8178 5.85918C27.4938 6.30988 27.7192 6.98594 27.2685 7.662L17.1277 25.0141C16.9023 25.4648 16.4516 25.6902 16.0009 25.6902Z" fill="#333333"/>
<path d="M22.7611 13.9718C22.3104 13.9718 21.6344 13.5211 21.6344 13.0704L20.2823 8.56337C20.0569 7.88731 20.5076 7.21125 21.1837 6.9859C21.8597 6.9859 22.5358 7.21125 22.5358 7.88731L23.6625 11.2676L27.0428 10.3662C27.7189 10.1408 28.3949 10.5915 28.6203 11.2676C28.8456 11.9436 28.3949 12.6197 27.7189 12.8451L23.2118 13.9718C22.9865 13.9718 22.7611 13.9718 22.7611 13.9718Z" fill="#333333"/>
<path d="M19.3803 19.831C18.7042 19.831 18.2535 19.6056 18.0282 18.9296L16.9014 14.4225C16.676 13.7465 17.1267 13.0704 17.8028 12.8451C18.4789 12.6197 19.1549 13.0704 19.3803 13.7465L20.2817 17.1267L23.662 16.2253C24.338 16 25.0141 16.4507 25.2394 17.1267C25.4648 17.8028 25.0141 18.4789 24.338 18.7042L19.831 19.831C19.6056 19.831 19.3803 19.831 19.3803 19.831Z" fill="#333333"/>
</svg>
