<svg width="31" height="32" viewBox="0 0 31 32" fill="none" xmlns="http://www.w3.org/2000/svg">
<g clip-path="url(#clip0_2449_1131)">
<path d="M25.7537 1.19037C25.8096 1.78712 25.8096 2.38778 25.7537 2.98453C25.7094 3.55965 25.5999 4.12788 25.4275 4.67833C25.0103 5.94771 24.2557 7.07968 23.2444 7.95299C25.084 8.72133 26.7141 9.91701 27.9995 11.4409C28.4425 11.9086 28.8612 12.3986 29.2542 12.9089C29.7339 13.5461 30.1739 14.2124 30.5716 14.9038C30.5716 14.9038 24.4614 14.3141 19.9321 16.4094C16.4692 17.9903 13.2071 20.6376 12.2661 18.6427C12.2661 18.5047 12.0277 18.2412 11.8521 17.915C11.7104 17.6664 11.6008 17.4008 11.5259 17.1246C11.4849 16.9428 11.4849 16.7542 11.5259 16.5725C12.2541 14.061 13.3356 11.6658 14.7378 9.45858L15.2522 8.63051L16.1806 6.52268L17.0589 4.54031C20.0185 3.58979 22.9214 2.47133 25.7537 1.19037Z" fill="#333333"/>
<path d="M23.2451 7.95308C25.0847 8.72142 26.7148 9.9171 28.0002 11.441C26.3405 11.5115 24.6882 11.7044 23.0569 12.0182C20.7985 12.3444 14.9141 15.3179 11.5014 17.1246C11.4605 16.9429 11.4605 16.7543 11.5014 16.5726C12.2376 14.0598 13.3275 11.6644 14.7385 9.45868L19.18 6.94936C19.18 6.94936 22.6303 5.80762 25.4533 4.62823C25.0373 5.91865 24.2731 7.06918 23.2451 7.95308Z" fill="#CCCCCC"/>
<path d="M20.4444 13.5613C20.4444 13.5613 21.8747 15.6189 18.0731 16.5223C14.9866 17.2625 14.7608 15.4935 12.264 18.6427C9.41594 13.4735 9.7547 12.8461 9.7547 12.8461L18.9514 9.08215L20.4444 13.5613Z" fill="black"/>
<path d="M16.1666 1.47896C16.5095 1.939 16.8232 2.40323 17.1076 2.87163C18.5952 5.25738 19.6645 7.87968 20.2693 10.6254C20.4324 11.3908 20.5328 12.0683 20.6081 12.6329C20.6874 13.2445 20.7293 13.8605 20.7335 14.4772C20.1412 14.1102 19.4604 13.9108 18.7637 13.9001C15.1628 14.289 9.80544 18.7807 6.99501 20.3741C6.17948 20.8384 6.12929 19.9476 5.84072 19.1195C5.80547 18.8977 5.7509 18.6794 5.67761 18.4671L5.27612 17.4006L2.27748 9.4586L1.63761 7.70208L1.13574 6.32195C4.78736 3.64799 8.83435 1.56099 13.1303 0.136476C13.5842 -0.0274392 14.0783 -0.0441396 14.5423 0.0887471C15.0062 0.221634 15.4166 0.49735 15.7149 0.876725L16.1666 1.47896Z" fill="#333333"/>
<path d="M1.0745 6.15877L10.5681 31.114C10.6006 31.2053 10.6127 31.3027 10.6036 31.3992C10.5945 31.4958 10.5644 31.5892 10.5154 31.6728C10.4663 31.7565 10.3996 31.8285 10.3199 31.8836C10.2401 31.9388 10.1493 31.9759 10.0537 31.9922C9.90345 32.0156 9.74977 31.9857 9.6192 31.9079C9.48862 31.83 9.38935 31.7089 9.33853 31.5656L0.0331306 6.53516C-0.0141493 6.40491 -0.010719 6.26165 0.04274 6.13381C0.096199 6.00598 0.195777 5.90292 0.321702 5.8451C0.391255 5.81267 0.466803 5.79511 0.543526 5.79351C0.620249 5.79192 0.696461 5.80635 0.767297 5.83586C0.838134 5.86538 0.902039 5.90934 0.954933 5.96493C1.00783 6.02053 1.04855 6.08655 1.0745 6.15877Z" fill="black"/>
<path d="M17.1093 2.8717C18.597 5.25744 19.6663 7.87974 20.2711 10.6255V10.7384C20.2711 10.7384 18.226 9.45867 14.8258 11.3908C10.8486 13.6869 6.59526 16.673 5.24023 17.4007L2.27923 9.45867L2.19141 9.19519C2.19141 9.19519 14.3491 1.29083 17.1093 2.8717Z" fill="#CCCCCC"/>
</g>
<defs>
<clipPath id="clip0_2449_1131">
<rect width="30.5718" height="32" fill="white"/>
</clipPath>
</defs>
</svg>
