<svg width="32" height="32" viewBox="0 0 32 32" fill="none" xmlns="http://www.w3.org/2000/svg">
<g clip-path="url(#clip0_2449_1119)">
<path d="M17.4548 10.5175V10.0699V9.84614V4.02795H14.5457V9.62236V10.0699V10.2937V10.7412L11.8604 17.4545L17.9023 11.6363L17.6785 11.1888L17.4548 10.5175Z" fill="white"/>
<path d="M7.83203 27.972H23.9439V27.7482L19.2446 15.4406L17.902 16.7832C18.3495 16.7832 18.5733 17.007 18.5733 17.4545C18.7971 17.9021 18.3495 18.1259 17.902 18.1259C17.6782 18.1259 17.2306 17.9021 17.2306 17.4545L15.2166 19.4685C15.888 19.9161 16.1118 20.3636 16.1118 21.2587C16.1118 22.3776 15.2166 23.2727 14.0978 23.2727C13.4264 23.2727 12.7551 22.8252 12.3076 22.3776L8.05581 26.6294L7.83203 27.972ZM17.6782 24.3916C18.3495 24.3916 19.0208 24.8392 19.0208 25.7343C19.0208 26.6294 18.5733 27.0769 17.6782 27.0769C16.7831 27.0769 16.3355 26.6294 16.3355 25.7343C16.3355 24.8392 17.0069 24.3916 17.6782 24.3916Z" fill="white"/>
<path d="M24.1682 27.7483C24.1682 27.972 24.1682 27.972 24.1682 27.7483L7.83249 27.972V27.7483L8.50382 26.1818L5.59473 29.0909C6.04228 29.986 6.93738 30.6573 7.83249 30.6573H16.1122H24.3919C25.7346 30.6573 27.0772 29.0909 27.0772 27.3007L21.4828 13.4266L19.2451 15.4406L24.1682 27.7483Z" fill="#333333"/>
<path d="M14.5457 10.7413V10.2937V10.0699V9.62237V4.02797H17.4548V9.84615V10.0699V10.5175L17.6786 11.1888L17.9024 11.6364L20.1402 9.39859V4.02797H20.3639C21.0353 4.02797 21.7066 3.35664 21.7066 2.68531C21.7066 2.01398 21.259 1.56643 20.5877 1.34265H20.3639H15.8884H11.4129H11.1891C10.5178 1.34265 10.0702 2.01398 10.0702 2.68531C10.0702 3.35664 10.7416 4.02797 11.4129 4.02797H11.6367V9.62237C11.6367 9.84615 11.6367 10.0699 11.6367 10.2937L7.16113 22.1538L11.8604 17.4545L14.5457 10.7413Z" fill="#333333"/>
<path d="M17.9028 18.1259C18.3503 18.1259 18.5741 17.9021 18.5741 17.4545C18.5741 17.007 18.3503 16.7832 17.9028 16.7832L17.2314 17.4545C17.2314 17.9021 17.679 18.1259 17.9028 18.1259Z" fill="#333333"/>
<path d="M17.6786 27.0769C18.4201 27.0769 19.0213 26.4758 19.0213 25.7343C19.0213 24.9927 18.4201 24.3916 17.6786 24.3916C16.9371 24.3916 16.3359 24.9927 16.3359 25.7343C16.3359 26.4758 16.9371 27.0769 17.6786 27.0769Z" fill="#333333"/>
<path d="M14.3224 23.0489C15.4413 23.0489 16.3364 22.1538 16.3364 21.035C16.3364 20.3636 15.8889 19.6923 15.4413 19.2448L12.5322 22.1538C12.9798 22.8252 13.6511 23.0489 14.3224 23.0489Z" fill="#333333"/>
<path d="M1.34307 32C1.1193 32 0.671745 31.7762 0.447969 31.5524C0.000416584 31.1049 0.000416584 30.2098 0.447969 29.7622L29.9864 0.447542C30.434 -1.06618e-05 31.3291 -1.06618e-05 31.7766 0.447542C32.2242 0.895094 32.2242 1.7902 31.7766 2.23775L2.0144 31.7762C1.79063 32 1.56685 32 1.34307 32Z" fill="#333333"/>
</g>
<defs>
<clipPath id="clip0_2449_1119">
<rect width="32" height="32" fill="white"/>
</clipPath>
</defs>
</svg>
