<svg width="32" height="32" viewBox="0 0 32 32" fill="none" xmlns="http://www.w3.org/2000/svg">
<path d="M22.6015 27.0769L29.091 24.3916V16.5594L22.6015 13.8741V6.04192L16.112 3.58038L9.39869 6.04192V13.8741L2.90918 16.5594V24.3916L9.39869 27.0769L16.112 24.3916L22.6015 27.0769Z" fill="white"/>
<path d="M29.9871 15.8881C29.7634 15.6643 29.7634 15.6643 29.5396 15.4406L23.7214 13.2028V10.965L14.7704 19.9161V23.4965L10.7424 25.0629V23.944L7.38574 27.3007L8.95218 28.1958C9.17595 28.1958 9.17595 28.1958 9.39973 28.1958C9.6235 28.1958 9.6235 28.1958 9.84728 28.1958L15.8892 25.7343L21.9312 28.1958C22.155 28.1958 22.155 28.1958 22.3787 28.1958C22.6025 28.1958 22.6025 28.1958 22.8263 28.1958L29.3158 25.5105C29.7634 25.2867 29.9871 24.8392 29.9871 24.3916V16.5594C30.4347 16.3357 30.2109 16.1119 29.9871 15.8881C30.2109 15.8881 30.2109 15.8881 29.9871 15.8881ZM21.2599 25.2867L17.2319 23.7203V18.3496L21.2599 19.9161V25.2867ZM22.6025 17.9021L19.2459 16.5594L21.2599 15.8881L22.6025 15.4406L25.7354 16.7832L22.6025 17.9021ZM27.9732 23.4965L23.9452 25.0629V19.9161L27.9732 18.3496V23.4965Z" fill="#333333"/>
<path d="M2.46234 25.5105L3.35745 25.958L5.14766 24.1678L4.02878 23.7202V18.3496L8.05675 19.9161V20.8112L12.5323 16.3356L9.39941 17.9021L6.26654 16.5594L9.39941 15.2168L10.2945 15.6643L12.5323 16.5594L14.3225 14.7692L10.7421 13.2028V7.83214L14.77 9.39857V14.3216L17.2316 11.8601V9.62235L21.2595 8.05591L23.4973 5.81815C23.4973 5.81815 23.4973 5.81815 23.4973 5.59438C23.4973 5.59438 23.4973 5.59438 23.4973 5.3706C23.2735 5.14682 23.2735 5.14682 23.0498 4.92305L16.5602 2.23773C16.1127 2.23773 15.8889 2.23773 15.6651 2.23773L8.95185 4.92305C8.72808 4.92305 8.5043 5.14682 8.5043 5.3706C8.5043 5.3706 8.5043 5.3706 8.5043 5.59438C8.5043 5.81815 8.28053 6.04193 8.28053 6.2657V13.2028L2.46234 15.4405C2.23857 15.4405 2.01479 15.6643 2.01479 15.8881C2.01479 15.8881 2.01479 15.8881 2.01479 16.1119C2.01479 16.3356 1.79102 16.5594 1.79102 16.7832V24.6154C1.79102 24.8391 2.01479 25.2867 2.46234 25.5105ZM16.1127 4.69927L19.2456 6.04193L16.1127 7.38458L12.756 6.04193L16.1127 4.69927Z" fill="#333333"/>
<path d="M1.34307 32C1.1193 32 0.671745 31.7762 0.447969 31.5524C0.000416584 31.1049 0.000416584 30.2098 0.447969 29.7622L29.9864 0.447542C30.434 -1.06618e-05 31.3291 -1.06618e-05 31.7766 0.447542C32.2242 0.895094 32.2242 1.7902 31.7766 2.23775L2.0144 31.7762C1.79063 32 1.56685 32 1.34307 32Z" fill="#333333"/>
</svg>
