<svg width="23" height="22" viewBox="0 0 23 22" fill="none" xmlns="http://www.w3.org/2000/svg">
<g clip-path="url(#clip0_2450_1917)">
<path d="M11.6373 2.12705C14.5291 2.12705 14.8686 2.13994 16.0115 2.1915C17.0686 2.23877 17.64 2.41494 18.0225 2.56533C18.4908 2.73721 18.9162 3.0165 19.2686 3.37314C19.6295 3.72119 19.9045 4.14658 20.0764 4.61924C20.2268 5.00166 20.4029 5.57314 20.4502 6.63018C20.5018 7.77314 20.5146 8.1126 20.5146 11.0044C20.5146 13.8962 20.5018 14.2356 20.4502 15.3786C20.4029 16.4356 20.2268 17.0071 20.0764 17.3896C19.7111 18.3349 18.9678 19.0782 18.0225 19.4435C17.64 19.5938 17.0686 19.77 16.0115 19.8173C14.8686 19.8688 14.5291 19.8817 11.6373 19.8817C8.74551 19.8817 8.40605 19.8688 7.26308 19.8173C6.20605 19.77 5.63457 19.5938 5.25215 19.4435C4.78379 19.2716 4.3584 18.9923 4.00605 18.6356C3.64512 18.2876 3.37012 17.8622 3.19824 17.3896C3.04785 17.0071 2.87168 16.4356 2.82441 15.3786C2.77285 14.2356 2.75996 13.8962 2.75996 11.0044C2.75996 8.1126 2.77285 7.77314 2.82441 6.63018C2.87168 5.57314 3.04785 5.00166 3.19824 4.61924C3.37012 4.15088 3.64941 3.72549 4.00605 3.37314C4.3541 3.01221 4.77949 2.73721 5.25215 2.56533C5.63457 2.41494 6.20605 2.23877 7.26308 2.1915C8.40605 2.13564 8.74551 2.12705 11.6373 2.12705ZM11.6373 0.17627C8.69824 0.17627 8.32871 0.18916 7.17285 0.240723C6.02129 0.292285 5.23496 0.477051 4.54746 0.743457C3.82559 1.01416 3.17246 1.43955 2.63105 1.99385C2.07676 2.53096 1.65137 3.18838 1.38066 3.91025C1.11426 4.59775 0.929492 5.38408 0.87793 6.53994C0.826367 7.6915 0.813477 8.06103 0.813477 11.0001C0.813477 13.9392 0.826367 14.3087 0.87793 15.4646C0.929492 16.6161 1.11426 17.4024 1.38066 18.0942C1.65137 18.8161 2.07676 19.4692 2.63105 20.0106C3.17246 20.5606 3.82559 20.986 4.54746 21.2567C5.23496 21.5231 6.02129 21.7079 7.17715 21.7595C8.33301 21.811 8.69824 21.8239 11.6416 21.8239C14.585 21.8239 14.9502 21.811 16.1061 21.7595C17.2576 21.7079 18.0439 21.5231 18.7357 21.2567C20.1881 20.6938 21.3396 19.5466 21.9025 18.0899C22.1689 17.4024 22.3537 16.6161 22.4053 15.4603C22.4568 14.3044 22.4697 13.9392 22.4697 10.9958C22.4697 8.05244 22.4568 7.68721 22.4053 6.53135C22.3537 5.37979 22.1689 4.59346 21.9025 3.90166C21.6318 3.17979 21.2064 2.52666 20.6521 1.98525C20.1107 1.43525 19.4576 1.00986 18.7357 0.734863C18.0482 0.468457 17.2619 0.283691 16.1061 0.232129C14.9459 0.18916 14.5764 0.17627 11.6373 0.17627Z" fill="black"/>
<path d="M11.6373 5.43994C8.56934 5.43994 6.07715 7.92783 6.07715 11.0001C6.07715 14.0724 8.56934 16.5602 11.6373 16.5602C14.7053 16.5602 17.1975 14.0681 17.1975 11.0001C17.1975 7.93213 14.7053 5.43994 11.6373 5.43994ZM11.6373 14.6095C9.64355 14.6095 8.02793 12.9938 8.02793 11.0001C8.02793 9.00635 9.64355 7.39072 11.6373 7.39072C13.6311 7.39072 15.2467 9.00635 15.2467 11.0001C15.2467 12.9938 13.6311 14.6095 11.6373 14.6095Z" fill="black"/>
<path d="M17.4168 6.51865C18.1335 6.51865 18.7145 5.93767 18.7145 5.221C18.7145 4.50432 18.1335 3.92334 17.4168 3.92334C16.7001 3.92334 16.1191 4.50432 16.1191 5.221C16.1191 5.93767 16.7001 6.51865 17.4168 6.51865Z" fill="black"/>
</g>
<defs>
<clipPath id="clip0_2450_1917">
<rect width="22" height="22" fill="white" transform="translate(0.637695)"/>
</clipPath>
</defs>
</svg>
