<svg width="21" height="21" viewBox="0 0 21 21" fill="none" xmlns="http://www.w3.org/2000/svg">
<path d="M10.5 0C4.66667 0 0 4.66667 0 10.5C0 16.3333 4.66667 21 10.5 21C16.3333 21 21 16.3333 21 10.5C21 4.66667 16.3333 0 10.5 0ZM10.5 1.51667C15.5167 1.51667 19.4833 5.6 19.4833 10.5C19.4833 12.1333 19.0167 13.7667 18.2 15.05C17.5 12.95 15.6333 11.2 13.1833 10.5C14.1167 9.68333 14.5833 8.63333 14.5833 7.35C14.5833 5.01667 12.7167 3.15 10.3833 3.15C8.05 3.15 6.18333 5.01667 6.18333 7.35C6.18333 8.63333 6.76667 9.68333 7.58333 10.5C5.13333 11.2 3.26667 12.95 2.56667 15.05C1.86667 13.7667 1.51667 12.1333 1.51667 10.5C1.51667 5.48333 5.48333 1.51667 10.5 1.51667ZM10.5 10.0333C8.98333 10.0333 7.81667 8.75 7.81667 7.35C7.81667 5.83333 8.98333 4.66667 10.5 4.66667C12.0167 4.66667 13.1833 5.83333 13.1833 7.35C13.1833 8.86667 12.0167 10.0333 10.5 10.0333ZM10.5 19.4833C7.93333 19.4833 5.48333 18.3167 3.85 16.5667C4.08333 13.7667 7 11.55 10.5 11.55C14 11.55 16.9167 13.7667 17.15 16.6833C15.5167 18.4333 13.0667 19.4833 10.5 19.4833Z" fill="#333333"/>
</svg>
