<?xml version="1.0" encoding="utf-8"?>
<!-- Generator: Adobe Illustrator 20.1.0, SVG Export Plug-In . SVG Version: 6.00 Build 0)  -->
<svg version="1.1" id="Layer_1" xmlns="http://www.w3.org/2000/svg" xmlns:xlink="http://www.w3.org/1999/xlink" x="0px" y="0px"
	 viewBox="0 0 18 15" style="enable-background:new 0 0 18 15;" xml:space="preserve">
<style type="text/css">
	.st0{fill:#FFFFFF;}
</style>
<g>
	<path class="st0" d="M16.5,7l-2.6,2.3c-0.1,0.1-0.3,0.5-0.2,0.7l0.7,3.4c0.1,0.5,0,0.9-0.3,1.2c0,0-0.4,0.4-1,0.4
		c-0.2,0-0.4-0.1-0.6-0.2l-3.1-1.6c0,0-0.2-0.1-0.3-0.1c-0.2,0-0.4,0-0.5,0.1l-3.1,1.6C5.2,14.9,4.9,15,4.7,15
		c-0.4,0-0.6-0.2-0.8-0.4S3.6,14,3.7,13.5L4.3,10c0-0.2-0.1-0.6-0.2-0.7L1.5,7C1.1,6.6,0.9,6.1,1.1,5.6s0.6-0.8,1.1-0.8l3.5-0.4
		c0.2,0,0.5-0.3,0.6-0.4l1.5-3.2C8.1,0.3,8.4,0,9.1,0c0.5,0,0.9,0.3,1.1,0.8l1.5,3.1c0.1,0.2,0.4,0.4,0.6,0.5l3.5,0.4
		c0.6,0.1,1,0.4,1.1,0.9C17.1,6.1,16.9,6.6,16.5,7z"/>
</g>
</svg>
