<?xml version="1.0" encoding="utf-8"?>
<!-- Generator: Adobe Illustrator 20.1.0, SVG Export Plug-In . SVG Version: 6.00 Build 0)  -->
<svg version="1.1" id="Layer_1" xmlns="http://www.w3.org/2000/svg" xmlns:xlink="http://www.w3.org/1999/xlink" x="0px" y="0px"
	 viewBox="0 0 18 15" style="enable-background:new 0 0 18 15;" xml:space="preserve">
<path d="M9.1,1c0,0,0.1,0.1,0.2,0.2l1.5,3.1c0.2,0.5,0.9,0.9,1.4,1l3.4,0.4C15.7,5.8,16,5.8,16,6c0,0.1-0.1,0.3-0.1,0.3l-2.7,2.3
	c-0.4,0.4-0.6,1.1-0.5,1.7l0.7,3.4c0,0.1,0,0.2,0,0.3l-0.1,0.1l0,0c-0.1,0-0.2,0-0.3-0.1l-3.1-1.6c-0.2-0.1-0.5-0.2-0.7-0.2
	c-0.1,0-0.1,0-0.2,0c-0.2,0-0.5,0-0.8,0.2L5.1,14c-0.1-0.1-0.3,0-0.4,0c0,0,0,0-0.1-0.1c0-0.1-0.1-0.2,0-0.3l0.7-3.5
	c0.1-0.5-0.1-1.3-0.6-1.7L2.2,6.2C2.2,6.2,2,6,2,5.9c0-0.1,0.3-0.2,0.3-0.2l3.6-0.4c0.5-0.1,1.1-0.5,1.4-1l1.4-3.1
	C8.8,1.1,8.9,1,8.8,1l0,0C8.9,1,8.9,1,9.1,1L9.1,1 M9.1,0c-0.7,0-1,0.3-1.3,0.8L6.4,4C6.3,4.1,5.9,4.4,5.7,4.4L2.2,4.8
	c-0.6,0.1-1,0.4-1.1,0.8c-0.2,0.5,0,1,0.4,1.3l2.6,2.3C4.2,9.4,4.4,9.8,4.3,10l-0.7,3.4c-0.1,0.5,0.1,0.9,0.2,1.1
	C4,14.8,4.3,15,4.6,15c0,0,0,0,0.1,0c0.3,0,0.6,0,0.8-0.2l3.1-1.6c0.1,0,0.2-0.1,0.4-0.1h0.1c0.1,0,0.2,0,0.3,0.1l3.1,1.6
	c0.2,0.1,0.4,0.2,0.6,0.2h0.1c0.5,0,0.8-0.4,0.8-0.4c0.3-0.3,0.4-0.7,0.3-1.2L13.6,10c0-0.2,0.1-0.6,0.2-0.7L16.5,7
	c0.4-0.4,0.6-0.9,0.4-1.3c-0.2-0.5-0.6-0.8-1.1-0.9l-3.5-0.4c-0.2,0-0.5-0.3-0.6-0.5l-1.5-3.1C10,0.3,9.6,0,9.1,0L9.1,0L9.1,0z"/>
</svg>
