<svg width="18" height="20" viewBox="0 0 18 20" fill="none" xmlns="http://www.w3.org/2000/svg">
<path d="M16.7322 3.80952H13.4714V3.12925V2.58503C13.4714 0 12.2486 0 11.0258 0C9.80304 0 9.66718 0 7.2216 0C4.77603 0 4.64016 1.22449 4.64016 2.58503C4.64016 3.12925 4.64016 3.12925 4.64016 3.12925V3.80952H1.51526C1.10767 3.80952 0.835938 4.08163 0.835938 4.4898V5.71429C0.835938 6.12245 1.10767 6.39456 1.51526 6.39456C1.92286 6.39456 2.19459 6.66667 2.19459 7.07483V19.3197C2.19459 19.7279 2.46632 20 2.87392 20H15.6453C16.0528 20 16.3246 19.7279 16.3246 19.3197V7.07483C16.3246 6.66667 16.5963 6.39456 17.0039 6.39456C17.4115 6.39456 17.6832 6.12245 17.6832 5.71429V4.4898C17.4115 4.08163 17.1398 3.80952 16.7322 3.80952ZM6.13468 1.63265H11.841V3.94558H6.13468V1.63265ZM14.4225 17.1429C14.4225 17.6871 14.0149 18.0952 13.4714 18.0952H4.77603C4.23257 18.0952 3.82497 17.6871 3.82497 17.1429V7.34694C3.82497 6.80272 4.23257 6.39456 4.77603 6.39456H13.6073C14.1507 6.39456 14.5583 6.80272 14.5583 7.34694V17.1429H14.4225Z" fill="#CCCCCC"/>
</svg>
